# xmcd
#
# Track frame offsets:
# 150
# 17087
# 35654
# 53849
# 72899
# 91066
# 110414
# 124601
# 137080
# 151442
# 165916
# 180554
# 195865
# 214897
# 231071
# 247436
# 265389
# 283437
# 301260
# 317993
#
# Disc length: 4432 seconds
#
#
# Revision: 3
# Processed by: cddbd v1.5.1PL0 Copyright (c) Steve Scherf et al.
# Submitted via: FreeRIP 2.941 
#
DISCID=1f114e14
DTITLE=Various Artist - So Fresh - The Hits Of Autumn 2005
DYEAR=2005
DGENRE=Pop
TTITLE0=Jennifer Lopez - Get Right
TTITLE1=Nitty - Nasty Girl
TTITLE2=Destiny's Child - Lose My Breath
TTITLE3=Nelly (ft Tim McGraw) - Over And Over
TTITLE4=Maroon 5 - Sunday Morning
TTITLE5=Delta Goodrem - Out Of The Blue
TTITLE6=Kelly Clarkson - Since U Been Gone
TTITLE7=Good Charlotte - I Just Wanna Live
TTITLE8=Michael Gray - The Weekend
TTITLE9=The Lovefreekz - Shine
TTITLE10=Deep Dish - Flashdance
TTITLE11=Tammin - Pointless Relationship
TTITLE12=Anthony Callea - The Prayer
TTITLE13=Jo Jo (ft Bow Wow) - Baby It's You
TTITLE14=Natasha Bedingfield - Unwritten
TTITLE15=Guy Sebastian - Kryptonite
TTITLE16=Casey Donovan - Listen With Your Heart
TTITLE17=Ashlee Simpson - Shadow
TTITLE18=The Killers - Mr Brightside
TTITLE19=U2 - Vertigo
EXTD=
EXTT0=
EXTT1=
EXTT2=
EXTT3=
EXTT4=
EXTT5=
EXTT6=
EXTT7=
EXTT8=
EXTT9=
EXTT10=
EXTT11=
EXTT12=
EXTT13=
EXTT14=
EXTT15=
EXTT16=
EXTT17=
EXTT18=
EXTT19=
PLAYORDER=
